<svg id="Layer_1" data-name="Layer 1" xmlns="http://www.w3.org/2000/svg" viewBox="0 0 10 10"><defs><style>.cls-1{fill:#262626;}</style></defs><title>Artboard 1 copy 2</title><path class="cls-1" d="M8.54,1.46A5,5,0,1,0,10,5,5,5,0,0,0,8.54,1.46Zm-.28,6.8A4.61,4.61,0,1,1,9.61,5,4.61,4.61,0,0,1,8.26,8.26Z"/><path class="cls-1" d="M3.27,2.74a.53.53,0,1,0,.53.53A.53.53,0,0,0,3.27,2.74Z"/><polygon class="cls-1" points="2.74 5.05 2.74 7.26 3.8 7.26 3.8 4.87 3.8 4.25 2.74 4.25 2.74 5.05"/><path class="cls-1" d="M6.13,4.25a.94.94,0,0,0-.88.4h0v-.4H4.4v3h.87V5.76c0-.39.08-.77.56-.77s.52.45.52.8V7.26h.91V5.6a2.9,2.9,0,0,0,0-.43C7.16,4.6,6.9,4.25,6.13,4.25Z"/></svg>