<svg id="Layer_1" data-name="Layer 1" xmlns="http://www.w3.org/2000/svg" viewBox="0 0 10 10"><defs><style>.cls-1{fill:#262626;}</style></defs><title>Artboard 1 copy</title><path class="cls-1" d="M8.54,1.46A5,5,0,1,0,10,5,5,5,0,0,0,8.54,1.46Zm-.28,6.8A4.61,4.61,0,1,1,9.61,5,4.61,4.61,0,0,1,8.26,8.26Z"/><path class="cls-1" d="M5,3.38A1.62,1.62,0,1,0,6.62,5,1.63,1.63,0,0,0,5,3.38Zm0,2.9A1.28,1.28,0,1,1,6.28,5,1.28,1.28,0,0,1,5,6.28Z"/><path class="cls-1" d="M6.32,2.49H3.68A1.2,1.2,0,0,0,2.49,3.68V6.32A1.2,1.2,0,0,0,3.68,7.51H6.32A1.19,1.19,0,0,0,7.51,6.32V3.68A1.19,1.19,0,0,0,6.32,2.49Zm.89,3.83a.89.89,0,0,1-.89.89H3.68a.89.89,0,0,1-.89-.89V3.68a.89.89,0,0,1,.89-.89H6.32a.89.89,0,0,1,.89.89Z"/><path class="cls-1" d="M6.59,3.16a.26.26,0,0,0-.26.26.25.25,0,0,0,.26.26.26.26,0,0,0,.26-.26A.26.26,0,0,0,6.59,3.16Z"/></svg>